<svg width="147" height="27" viewBox="0 0 147 27" fill="none" xmlns="http://www.w3.org/2000/svg">
<path d="M124.457 17.8617C126.363 17.8617 127.915 16.2547 127.915 14.2673C127.915 12.2521 126.363 10.6453 124.457 10.6453C122.551 10.6453 120.999 12.2521 120.999 14.2673C120.999 16.2547 122.578 17.8617 124.457 17.8617ZM118.984 8.84786C120.454 7.37746 122.387 6.56059 124.375 6.56059C126.499 6.56059 128.324 7.29604 129.794 8.6845C131.346 10.1549 132.191 12.1702 132.191 14.1581C132.191 16.3638 131.456 18.1886 129.985 19.6589C128.488 21.1567 126.635 21.9462 124.43 21.9462C122.197 21.9462 120.4 21.1838 118.902 19.6044C117.485 18.1339 116.751 16.2547 116.751 14.2127C116.751 12.1702 117.54 10.2914 118.984 8.84786Z" fill="white"/>
<path d="M92.9331 17.8617C94.8392 17.8617 96.3915 16.2547 96.3915 14.2673C96.3915 12.2521 94.8392 10.6453 92.9331 10.6453C91.027 10.6453 89.4749 12.2521 89.4749 14.2673C89.4749 16.2547 91.0544 17.8617 92.9331 17.8617ZM87.4596 8.84786C88.9301 7.37746 90.8634 6.56059 92.8513 6.56059C94.9757 6.56059 96.8 7.29604 98.2703 8.6845C99.8225 10.1549 100.667 12.1702 100.667 14.1581C100.667 16.3638 99.9317 18.1886 98.4614 19.6589C96.9633 21.1567 95.1117 21.9462 92.906 21.9462C90.6727 21.9462 88.8758 21.1838 87.3778 19.6044C85.962 18.1339 85.2266 16.2547 85.2266 14.2127C85.2266 12.1702 86.0166 10.2914 87.4596 8.84786Z" fill="white"/>
<path d="M40.6538 21.5367H44.929V1.28238L40.6538 2.17393V21.5367Z" fill="white"/>
<path d="M34.1265 21.5355H38.4017V6.91239H34.1265V21.5355Z" fill="white"/>
<path d="M36.2642 7.62939e-05C34.8156 7.62939e-05 33.6411 1.17446 33.6411 2.62308C33.6411 4.07169 34.8156 5.24597 36.2642 5.24597C37.7127 5.24597 38.8872 4.07169 38.8872 2.62308C38.8872 1.17446 37.7127 7.62939e-05 36.2642 7.62939e-05Z" fill="white"/>
<path d="M53.8195 15.4356L51.0692 6.9123H46.3037L51.6684 20.6367L49.5899 26.2734H53.9196L61.5531 6.9123H56.9237L53.8195 15.4356Z" fill="white"/>
<path d="M8.08764 17.683C5.88192 17.683 4.30255 16.1307 4.30255 14.0884C4.30255 12.1278 5.88192 10.4667 7.92425 10.4667C9.93939 10.4667 11.4915 12.0461 11.4915 14.1428C11.4915 16.1581 9.93939 17.683 8.08764 17.683ZM14.485 14.1678C14.485 12.5541 14.8769 11.0404 15.6306 9.69036V1.24252L11.3282 2.13396V8.50612C10.3478 7.25343 8.98626 6.65436 7.21623 6.65436C5.36452 6.65436 3.70342 7.33506 2.3419 8.66937C0.816973 10.1399 0 12.0189 0 14.1158C0 16.4031 0.871383 18.3637 2.5597 19.8615C3.83955 21.0052 5.36452 21.5768 7.13455 21.5768C8.87731 21.5768 10.1845 21.1139 11.4642 19.8615V21.4952H15.6306V18.7265C14.8808 17.3668 14.485 15.8313 14.485 14.1678Z" fill="white"/>
<path d="M84.4098 10.1279C84.2278 9.34806 83.9205 8.73094 83.4528 8.18415C82.6399 7.23369 81.495 6.78646 80.1163 6.66832C78.9959 6.57228 78.0304 6.71593 77.0998 7.20713C76.0926 7.73879 74.9491 8.98194 74.9491 8.98194C74.9491 8.98194 73.8128 6.64043 70.9695 6.64043C68.9628 6.64043 67.7384 7.49194 66.9159 8.87314V6.91247H63.022V21.5355H67.1067V13.8365C67.1067 12.2342 67.4795 10.6438 69.643 10.6438C71.5087 10.6438 71.6541 12.1637 71.6541 13.4257V21.5355H75.8751V13.7865C75.8751 11.3171 76.9487 10.6444 78.428 10.6444C79.6217 10.6444 80.4225 11.1838 80.4225 13.4257V21.5355H84.6161V18.7486C83.8664 17.3749 83.471 15.8324 83.471 14.1831C83.471 12.756 83.8018 11.38 84.4098 10.1279Z" fill="white"/>
<path d="M107.686 1.28272L103.329 2.17427V6.98694H101.478V11.2191H103.329V21.5355H107.686V11.2191H109.62V6.98694H107.686V1.28272Z" fill="white"/>
<path d="M113.647 5.24597C115.096 5.24597 116.27 4.07169 116.27 2.62308C116.27 1.17446 115.096 7.62939e-05 113.647 7.62939e-05C112.198 7.62939e-05 111.024 1.17446 111.024 2.62308C111.024 4.07169 112.198 5.24597 113.647 5.24597Z" fill="white"/>
<path d="M115.784 10.472V6.91247H111.509V21.5355H115.784V18.0472C115.269 16.8642 114.995 15.5758 114.995 14.2127C114.995 12.9045 115.271 11.6386 115.784 10.472Z" fill="white"/>
<path d="M142.017 6.64022C140.083 6.64022 138.722 7.40264 137.823 8.87314L137.878 6.91247H133.792V21.5355H138.014V13.6112C138.014 11.6506 138.912 10.6431 140.6 10.6431C142.262 10.6431 142.698 11.5689 142.698 13.6112V21.5355H147V11.8957C147 8.54632 145.04 6.64022 142.017 6.64022Z" fill="white"/>
<path d="M24.3287 17.7233C26.1802 17.7233 27.7324 16.198 27.7324 14.1832C27.7324 12.0861 26.1802 10.5071 24.1653 10.5071C22.123 10.5071 20.5435 12.168 20.5435 14.1287C20.5435 16.171 22.123 17.7233 24.3287 17.7233ZM27.7051 19.9018C26.4254 21.1543 25.1182 21.6172 23.3755 21.6172C21.6054 21.6172 20.0805 21.0451 18.8008 19.9018C17.1126 18.4035 16.2412 16.4431 16.2412 14.1558C16.2412 12.0594 17.058 10.1801 18.5829 8.70994C19.9445 7.37542 21.6054 6.69473 23.4573 6.69473C25.2271 6.69473 26.5888 7.29359 27.5692 8.54659V6.91253H31.8714V21.5354H27.7051V19.9018Z" fill="white"/>
</svg>
