<svg width="927" height="534" viewBox="0 0 927 534" fill="none" xmlns="http://www.w3.org/2000/svg">
<path d="M651.523 279.358L592.411 307.335L644.727 268.215C636.224 254.943 626.672 242.374 616.163 230.627L359.803 294.346L591.368 206.012C580.786 196.676 569.549 188.11 557.742 180.382L167.11 243.302C125.635 295.167 103.026 359.591 102.994 426H691C690.976 374.497 677.358 323.912 651.523 279.358Z" fill="#F2F2F2"/>
<path d="M525.771 162.218C466.63 133.453 399.557 125.333 335.26 139.154C270.963 152.975 213.151 187.94 171.054 238.466C263.404 218.232 424.194 183.204 525.771 162.218Z" fill="#F2F2F2"/>
<path d="M472.474 167.895C462.411 197.689 446.981 224.836 415.533 224.836C384.085 224.836 360.364 199.293 358.592 167.895C356.328 127.775 383.36 110.788 415.533 110.954C453.541 111.15 484.417 132.536 472.474 167.895Z" fill="#2F2E41"/>
<path d="M461.693 160.32H368.555V296.053H461.693V160.32Z" fill="#2F2E41"/>
<path d="M401.23 238.254C401.23 238.254 404.209 280.954 397.258 287.905C390.307 294.856 458.825 300.814 457.832 292.87C456.839 284.926 443.93 233.289 447.902 222.366C451.874 211.443 401.23 238.254 401.23 238.254Z" fill="#FFB8B8"/>
<path opacity="0.1" d="M401.23 238.254C401.23 238.254 404.209 280.954 397.258 287.905C390.307 294.856 458.825 300.814 457.832 292.87C456.839 284.926 443.93 233.289 447.902 222.366C451.874 211.443 401.23 238.254 401.23 238.254Z" fill="black"/>
<path d="M335.7 347.49L300.02 468.14L298.59 473H238.55C262.44 399.05 321.5 290 321.5 290L330.72 287.91L335.7 347.49Z" fill="#004A93"/>
<path opacity="0.1" d="M335.7 347.49L300.02 468.14L298.59 473H238.55C262.44 399.05 321.5 290 321.5 290L330.72 287.91L335.7 347.49Z" fill="black"/>
<path d="M413.146 253.149C437.826 253.149 457.832 233.143 457.832 208.464C457.832 183.785 437.826 163.778 413.146 163.778C388.467 163.778 368.461 183.785 368.461 208.464C368.461 233.143 388.467 253.149 413.146 253.149Z" fill="#FFB8B8"/>
<path d="M460.811 279.961C460.811 279.961 444.923 294.856 427.049 291.877C409.175 288.898 401.671 267.162 401.671 267.162L384.349 279.961C384.349 279.961 379.384 315.709 402.223 319.681C425.063 323.653 457.832 324.646 464.783 319.681C471.734 314.716 460.811 279.961 460.811 279.961Z" fill="#3F3D56"/>
<path d="M515.43 332.58L512.58 341.84L472.35 473H299.21C299.578 471.398 299.849 469.775 300.02 468.14C302.26 449.47 300.94 402.37 300.94 399.13C300.94 395.15 317.81 296.85 321.8 289.89C322.418 289.048 323.231 288.369 324.17 287.91C328.8 285.25 339.04 282.27 350.08 279.64C350.09 279.63 350.09 279.63 350.1 279.63C356.27 278.13 362.71 276.75 368.55 275.58H368.56C374.29 274.43 379.43 273.49 383.19 272.87C385.217 272.481 387.263 272.198 389.32 272.02C390.24 272.02 390.91 273.11 391.36 274.78C392.87 280.22 392.29 291.87 392.29 291.87C393.631 293.411 395.126 294.811 396.75 296.05C400.568 299.05 404.755 301.548 409.21 303.48C413.029 305.154 416.983 306.503 421.03 307.51H421.04C425.293 308.588 429.622 309.34 433.99 309.76C437.55 310.17 441.149 310.099 444.69 309.55H444.71C455.24 307.81 459.1 301.27 460.9 296.05C461.22 295.1 461.47 294.19 461.69 293.36C461.69 293.35 461.7 293.33 461.7 293.32C462.36 290.77 462.64 288.98 463.34 289.01H463.35C465.16 289.18 487.99 308.75 502.82 321.6C509.86 327.69 515.09 332.29 515.41 332.57L515.43 332.58Z" fill="#004A93"/>
<path opacity="0.1" d="M512.58 341.84L472.35 473H456.04C457.507 470.851 458.143 468.243 457.83 465.66C457.31 462 468.64 424.71 479.55 390.01C489.47 358.48 499.04 329.12 499.04 329.12L508.47 333.58C508.47 333.58 510.16 336.77 512.58 341.84Z" fill="black"/>
<path d="M541.25 460.68C539.29 461.17 539.5 466.99 539.39 473H462.33C463.268 471.84 463.968 470.506 464.39 469.075C464.812 467.644 464.948 466.144 464.79 464.66C464.28 461.15 471.88 424.96 479.55 390.01C485.58 362.37 491.66 335.5 493.77 326.15C494.29 323.89 494.57 322.67 494.57 322.67L495.48 323.1L495.5 323.11L515.41 332.57L515.43 332.58C515.43 332.58 546.21 391.18 536.29 405.08C526.35 418.98 526.35 418.98 530.32 425.94C534.29 432.88 545.21 459.69 541.25 460.68Z" fill="#004A93"/>
<path d="M415.533 122.941C427.947 122.941 438.01 112.878 438.01 100.465C438.01 88.0509 427.947 77.9877 415.533 77.9877C403.119 77.9877 393.056 88.0509 393.056 100.465C393.056 112.878 403.119 122.941 415.533 122.941Z" fill="#2F2E41"/>
<path d="M388.561 88.4768C388.561 82.905 390.631 77.5318 394.369 73.3997C398.107 69.2675 403.246 66.6709 408.79 66.1135C408.051 66.0401 407.301 66 406.542 66C400.581 66 394.864 68.3681 390.649 72.5833C386.434 76.7985 384.065 82.5156 384.065 88.4768C384.065 94.4381 386.434 100.155 390.649 104.37C394.864 108.586 400.581 110.954 406.542 110.954C407.301 110.954 408.051 110.914 408.79 110.84C403.246 110.283 398.107 107.686 394.369 103.554C390.631 99.4219 388.561 94.0487 388.561 88.4768Z" fill="#2F2E41"/>
<path d="M398.999 152.163C398.999 152.163 398.53 149.551 380.174 156.434C361.819 163.318 350.816 214.114 359.994 243.942C363.692 255.963 360.683 264.629 355.773 270.693C337.345 293.449 344.599 327.628 371.441 339.33C372.199 339.66 372.972 339.987 373.76 340.31L385.233 347.193C385.233 347.193 370.608 327.95 377.927 303.334C384.283 282.361 385.067 260.094 380.204 238.725C379.365 235.121 378.411 231.405 377.327 227.613C368.149 195.49 372.613 199.2 404.736 167.077C404.736 167.077 423.091 180.844 439.153 187.728C455.214 194.611 468.981 201.494 457.508 224.439C446.036 247.384 418.502 268.034 436.858 297.862C455.214 327.69 457.508 316.218 455.214 327.69L452.919 339.162L466.686 325.395L457.508 343.751C457.508 343.751 487.336 343.751 496.514 320.806L501.103 325.395C501.103 325.395 519.459 293.273 485.042 263.445C485.042 263.445 473.57 256.562 489.631 233.617C505.692 210.672 493.357 161.341 472.707 152.164C452.057 142.986 398.999 152.163 398.999 152.163Z" fill="#2F2E41"/>
<path d="M413.147 296.659L374.916 362.877H383.853V371.814L427.303 296.659H413.147Z" fill="#3F3D56"/>
<path d="M912 429H757V490H912V429Z" fill="#F2F2F2"/>
<path d="M892.5 507H776.5V517H892.5V507Z" fill="#F2F2F2"/>
<path d="M892.5 525H776.5V533H892.5V525Z" fill="#F2F2F2"/>
<path d="M16 16C18.2091 16 20 14.2091 20 12C20 9.79086 18.2091 8 16 8C13.7909 8 12 9.79086 12 12C12 14.2091 13.7909 16 16 16Z" fill="#004A93"/>
<path d="M27 16C29.2091 16 31 14.2091 31 12C31 9.79086 29.2091 8 27 8C24.7909 8 23 9.79086 23 12C23 14.2091 24.7909 16 27 16Z" fill="#004A93"/>
<path d="M38 16C40.2091 16 42 14.2091 42 12C42 9.79086 40.2091 8 38 8C35.7909 8 34 9.79086 34 12C34 14.2091 35.7909 16 38 16Z" fill="#004A93"/>
<path d="M927 534H0V0H927V534ZM2 532H925V2H2V532Z" fill="#2F2E41"/>
<path d="M926 20.0864H1V22.0864H926V20.0864Z" fill="#2F2E41"/>
<path d="M42 37H12V39H42V37Z" fill="#2F2E41"/>
<path d="M42 45H12V47H42V45Z" fill="#2F2E41"/>
<path d="M42 53H12V55H42V53Z" fill="#2F2E41"/>
<path d="M639 55H267V37H639V55ZM269 53H637V39H269V53Z" fill="#2F2E41"/>
<path d="M624 48.5C623.209 48.5 622.436 48.2654 621.778 47.8259C621.12 47.3864 620.607 46.7616 620.305 46.0307C620.002 45.2998 619.923 44.4956 620.077 43.7196C620.231 42.9437 620.612 42.231 621.172 41.6716C621.731 41.1122 622.444 40.7312 623.22 40.5769C623.996 40.4225 624.8 40.5017 625.531 40.8045C626.262 41.1072 626.886 41.6199 627.326 42.2777C627.765 42.9355 628 43.7089 628 44.5C627.999 45.5605 627.577 46.5773 626.827 47.3272C626.077 48.0771 625.061 48.4989 624 48.5ZM624 42.5C623.604 42.5 623.218 42.6173 622.889 42.8371C622.56 43.0568 622.304 43.3692 622.152 43.7346C622.001 44.1001 621.961 44.5022 622.038 44.8902C622.116 45.2781 622.306 45.6345 622.586 45.9142C622.866 46.1939 623.222 46.3844 623.61 46.4616C623.998 46.5387 624.4 46.4991 624.765 46.3478C625.131 46.1964 625.443 45.94 625.663 45.6111C625.883 45.2822 626 44.8956 626 44.5C625.999 43.9698 625.789 43.4614 625.414 43.0865C625.039 42.7115 624.53 42.5006 624 42.5Z" fill="#2F2E41"/>
<path d="M626.756 45.9595L625.363 47.395L629.304 51.2178L630.696 49.7823L626.756 45.9595Z" fill="#2F2E41"/>
<path d="M863 55H843V37H863V55ZM845 53H861V39H845V53Z" fill="#2F2E41"/>
<path d="M888 55H868V37H888V55ZM870 53H886V39H870V53Z" fill="#2F2E41"/>
<path d="M913 55H893V37H913V55ZM895 53H911V39H895V53Z" fill="#2F2E41"/>
<path d="M683 485H665V501H683V485Z" fill="#FF6584"/>
<path d="M708 485H690V501H708V485Z" fill="#F2F2F2"/>
<path d="M733 485H715V501H733V485Z" fill="#F2F2F2"/>
<path d="M732 474H50V86H732V474ZM52 472H730V88H52V472Z" fill="#2F2E41"/>
<path d="M153.614 438.376V447.771L138.007 438.246C137.924 438.198 137.829 438.171 137.733 438.171C137.637 438.17 137.542 438.195 137.458 438.243C137.374 438.29 137.305 438.359 137.256 438.443C137.208 438.526 137.182 438.62 137.182 438.717V459.308C137.182 459.404 137.208 459.499 137.256 459.582C137.305 459.665 137.374 459.734 137.458 459.782C137.542 459.829 137.637 459.854 137.733 459.854C137.829 459.853 137.924 459.827 138.007 459.778L153.614 450.253V459.649C153.614 459.721 153.643 459.79 153.694 459.841C153.745 459.892 153.814 459.921 153.886 459.921H158.727C158.8 459.921 158.869 459.892 158.92 459.841C158.971 459.79 159 459.721 159 459.649V438.376C159 438.304 158.971 438.234 158.92 438.183C158.869 438.132 158.8 438.103 158.727 438.103H153.886C153.814 438.103 153.745 438.132 153.694 438.183C153.643 438.234 153.614 438.304 153.614 438.376Z" fill="#3F3D56"/>
<path d="M111.993 459.921H107.643C107.571 459.922 107.5 459.908 107.433 459.881C107.366 459.854 107.305 459.814 107.254 459.763C107.203 459.712 107.162 459.652 107.134 459.586C107.106 459.519 107.091 459.448 107.091 459.376V438.649C107.091 438.577 107.106 438.505 107.134 438.439C107.162 438.372 107.203 438.312 107.254 438.261C107.305 438.211 107.366 438.171 107.433 438.144C107.5 438.116 107.571 438.103 107.643 438.103H111.993C112.065 438.103 112.137 438.116 112.203 438.144C112.27 438.171 112.331 438.211 112.382 438.261C112.434 438.312 112.474 438.372 112.502 438.439C112.53 438.505 112.545 438.577 112.545 438.649V459.376C112.545 459.448 112.53 459.519 112.502 459.586C112.474 459.652 112.434 459.712 112.382 459.763C112.331 459.814 112.27 459.854 112.203 459.881C112.137 459.908 112.065 459.922 111.993 459.921ZM123.993 459.921H119.643C119.571 459.922 119.5 459.908 119.433 459.881C119.366 459.854 119.305 459.814 119.254 459.763C119.203 459.712 119.162 459.652 119.134 459.586C119.106 459.519 119.091 459.448 119.091 459.376V438.649C119.091 438.577 119.106 438.505 119.134 438.439C119.162 438.372 119.203 438.312 119.254 438.261C119.305 438.211 119.366 438.171 119.433 438.144C119.5 438.116 119.571 438.103 119.643 438.103H123.993C124.065 438.103 124.137 438.116 124.203 438.144C124.27 438.171 124.331 438.211 124.382 438.261C124.434 438.312 124.474 438.372 124.502 438.439C124.53 438.505 124.545 438.577 124.545 438.649V459.376C124.545 459.448 124.53 459.519 124.502 459.586C124.474 459.652 124.434 459.712 124.382 459.763C124.331 459.814 124.27 459.854 124.203 459.881C124.137 459.908 124.065 459.922 123.993 459.921Z" fill="#3F3D56"/>
<path d="M79 438.669V459.355C78.9947 459.451 79.0153 459.547 79.0598 459.632C79.1043 459.717 79.1709 459.788 79.2526 459.838C79.3343 459.889 79.4281 459.916 79.5241 459.917C79.62 459.919 79.7145 459.894 79.7977 459.846L96.1954 449.503C96.2757 449.45 96.3414 449.377 96.3869 449.292C96.4324 449.207 96.4562 449.112 96.4562 449.016C96.4562 448.919 96.4324 448.824 96.3869 448.739C96.3414 448.654 96.2757 448.582 96.1954 448.528L79.7977 438.185C79.7153 438.136 79.6211 438.11 79.5251 438.11C79.4291 438.11 79.335 438.137 79.2529 438.187C79.1709 438.236 79.104 438.308 79.0594 438.393C79.0148 438.478 78.9943 438.573 79 438.669Z" fill="#004A93"/>
<path d="M699.5 424H82.5V428H699.5V424Z" fill="#2F2E41"/>
<path d="M190 424H82.5V428H190V424Z" fill="#004A93"/>
<path d="M334 487H51V498H334V487Z" fill="#F2F2F2"/>
<path d="M113 512H51V523H113V512Z" fill="#F2F2F2"/>
<path d="M912 107H757V168H912V107Z" fill="#F2F2F2"/>
<path d="M892.5 185H776.5V195H892.5V185Z" fill="#F2F2F2"/>
<path d="M892.5 203H776.5V213H892.5V203Z" fill="#F2F2F2"/>
<path d="M892.5 221H776.5V231H892.5V221Z" fill="#F2F2F2"/>
<path d="M912 268H757V329H912V268Z" fill="#F2F2F2"/>
<path d="M892.5 346H776.5V356H892.5V346Z" fill="#F2F2F2"/>
<path d="M892.5 364H776.5V374H892.5V364Z" fill="#F2F2F2"/>
<path d="M892.5 382H776.5V392H892.5V382Z" fill="#F2F2F2"/>
<path d="M661.863 425.83L659.799 424.271C652.459 418.628 647.619 414.971 647.178 409.928C647.077 408.97 647.17 408.001 647.45 407.08C647.73 406.158 648.192 405.302 648.809 404.562C649.426 403.822 650.186 403.213 651.042 402.772C651.898 402.331 652.835 402.066 653.795 401.993C654.928 401.9 656.068 402.055 657.135 402.446C658.203 402.838 659.172 403.457 659.976 404.261C660.628 403.33 661.475 402.552 662.458 401.981C663.441 401.41 664.537 401.059 665.669 400.954C666.628 400.859 667.596 400.958 668.516 401.243C669.436 401.529 670.289 401.997 671.025 402.618C671.761 403.24 672.365 404.003 672.801 404.862C673.237 405.721 673.496 406.659 673.564 407.62C674.005 412.663 669.873 417.104 663.625 423.936L661.863 425.83Z" fill="#FF6584"/>
<path d="M686.291 400.122L685.16 397.796C681.183 389.435 678.531 383.98 680.428 379.286C680.773 378.387 681.295 377.566 681.963 376.872C682.631 376.178 683.432 375.625 684.318 375.246C685.203 374.867 686.156 374.669 687.12 374.665C688.083 374.661 689.037 374.85 689.926 375.221C690.978 375.653 691.923 376.308 692.697 377.141C693.47 377.975 694.052 378.967 694.403 380.048C695.407 379.515 696.515 379.206 697.65 379.143C698.786 379.081 699.921 379.266 700.977 379.687C701.874 380.037 702.692 380.565 703.382 381.237C704.072 381.909 704.62 382.713 704.994 383.601C705.367 384.489 705.559 385.443 705.557 386.407C705.556 387.37 705.361 388.323 704.985 389.21C703.088 393.904 697.39 395.985 688.721 399.235L686.291 400.122Z" fill="#FF6584"/>
<path d="M676.291 467.122L675.16 464.796C671.183 456.435 668.531 450.98 670.428 446.286C670.773 445.387 671.295 444.566 671.963 443.872C672.631 443.178 673.432 442.625 674.318 442.246C675.203 441.867 676.156 441.669 677.12 441.665C678.083 441.661 679.037 441.85 679.926 442.221C680.978 442.653 681.923 443.308 682.697 444.141C683.47 444.975 684.052 445.967 684.403 447.048C685.407 446.515 686.515 446.206 687.65 446.143C688.786 446.081 689.921 446.266 690.977 446.687C691.874 447.037 692.692 447.565 693.382 448.237C694.072 448.909 694.62 449.713 694.994 450.601C695.367 451.489 695.559 452.443 695.557 453.407C695.556 454.37 695.361 455.323 694.985 456.21C693.088 460.904 687.39 462.985 678.721 466.235L676.291 467.122Z" fill="#FF6584"/>
</svg>
