<svg width="766" height="664" viewBox="0 0 766 664" fill="none" xmlns="http://www.w3.org/2000/svg">
<g clip-path="url(#clip0)">
<path d="M75.871 614.538C68.8919 637.852 79.7234 661.687 79.7234 661.687C79.7234 661.687 101.87 647.724 108.849 624.411C115.828 601.098 104.997 577.262 104.997 577.262C104.997 577.262 82.8501 591.225 75.871 614.538Z" fill="#F2F2F2"/>
<path d="M86.4676 615.169C92.3414 638.785 80.3999 662.084 80.3999 662.084C80.3999 662.084 58.9349 647.094 53.061 623.478C47.1872 599.862 59.1287 576.563 59.1287 576.563C59.1287 576.563 80.5937 591.553 86.4676 615.169Z" fill="#F2F2F2"/>
<path d="M435.535 638.619L439.977 627.192L398.017 604.619L391.461 621.484L435.535 638.619Z" fill="#FFB8B8"/>
<path d="M459.337 608.81C457.454 608.077 455.444 607.722 453.424 607.766C451.404 607.81 449.412 608.251 447.562 609.065C445.713 609.879 444.042 611.05 442.645 612.51C441.248 613.97 440.153 615.692 439.421 617.576L436.424 625.279L431.804 637.169L430.675 640.084L445.481 645.844L459.802 608.994L459.337 608.81Z" fill="#2F2E41"/>
<path d="M431.806 616.628L429.874 621.751L425.052 634.54L424.936 634.859C412.651 636.438 399.184 633.343 386.727 628.536C381.744 626.614 376.862 624.436 372.103 622.01C365.059 618.451 358.751 614.695 353.72 611.482C346.144 606.619 341.459 602.968 341.459 602.968C341.459 602.968 340.222 604.087 337.982 606.005C334.981 608.573 330.185 612.583 324.109 617.304C321.792 619.117 319.304 621.014 316.645 622.994C297.044 637.533 271.889 598.738 271.889 598.738C271.889 598.738 278.964 594.234 280.812 593.359C286.763 590.544 300.744 583.9 312.806 577.996C319.02 574.95 324.718 572.093 328.543 570.063C342.089 562.851 358.928 576.498 358.928 576.498L431.806 616.628Z" fill="#2F2E41"/>
<path opacity="0.14" d="M431.806 616.628L429.874 621.751L425.052 634.54L424.936 634.859C412.651 636.438 399.184 633.343 386.727 628.536C381.744 626.614 376.862 624.436 372.103 622.01C365.059 618.451 358.751 614.695 353.72 611.482C346.144 606.619 341.459 602.968 341.459 602.968C341.459 602.968 340.222 604.087 337.982 606.005C334.981 608.573 330.185 612.583 324.109 617.304C321.792 619.117 319.304 621.014 316.645 622.994C297.044 637.533 271.889 598.738 271.889 598.738C271.889 598.738 278.964 594.234 280.812 593.359C286.763 590.544 300.744 583.9 312.806 577.996C319.02 574.95 324.718 572.093 328.543 570.063C342.089 562.851 358.928 576.498 358.928 576.498L431.806 616.628Z" fill="black"/>
<path d="M183.579 344.623C278.744 344.623 355.89 267.477 355.89 172.312C355.89 77.1466 278.744 0 183.579 0C88.4137 0 11.2671 77.1466 11.2671 172.312C11.2671 267.477 88.4137 344.623 183.579 344.623Z" fill="#004A93"/>
<path opacity="0.2" d="M56.3494 57.221C40.2766 94.8182 38.0962 136.906 50.1979 175.962C62.2995 215.019 87.8947 248.5 122.41 270.423C156.925 292.346 198.11 301.281 238.607 295.633C279.104 289.985 316.272 270.121 343.472 239.591C333.653 262.561 318.958 283.122 300.404 299.849C281.851 316.576 259.882 329.07 236.021 336.464C212.159 343.858 186.976 345.976 162.215 342.671C137.453 339.366 113.707 330.717 92.6202 317.323C71.5334 303.93 53.6107 286.112 40.0938 265.104C26.5768 244.096 17.7889 220.401 14.3387 195.659C10.8886 170.918 12.8588 145.722 20.1128 121.818C27.3668 97.9138 39.7313 75.8724 56.3494 57.221Z" fill="black"/>
<path d="M184.052 172.311H184.526L193.047 660.843H175.058L184.052 172.311Z" fill="#3F3D56"/>
<path d="M157.527 393.873L153.557 401.412L182.041 416.408L186.01 408.869L157.527 393.873Z" fill="#3F3D56"/>
<path d="M765 662.788H1C0.734784 662.788 0.480429 662.682 0.292892 662.495C0.105356 662.307 0 662.053 0 661.788C0 661.523 0.105356 661.268 0.292892 661.081C0.480429 660.893 0.734784 660.788 1 660.788H765C765.265 660.788 765.52 660.893 765.707 661.081C765.895 661.268 766 661.523 766 661.788C766 662.053 765.895 662.307 765.707 662.495C765.52 662.682 765.265 662.788 765 662.788Z" fill="#3F3D56"/>
<path d="M235.746 509.077H177.746C176.553 509.075 175.409 508.601 174.566 507.757C173.722 506.913 173.247 505.77 173.246 504.577V479.577C173.246 470.692 176.776 462.171 183.058 455.888C189.34 449.606 197.861 446.077 206.746 446.077C215.631 446.077 224.152 449.606 230.434 455.888C236.717 462.171 240.246 470.692 240.246 479.577V504.577C240.245 505.77 239.77 506.913 238.927 507.757C238.083 508.601 236.939 509.075 235.746 509.077Z" fill="#2F2E41"/>
<path d="M290.904 540.478C289.553 540.715 288.272 541.246 287.148 542.032C286.025 542.818 285.088 543.841 284.403 545.028C283.718 546.215 283.302 547.539 283.183 548.904C283.065 550.27 283.248 551.645 283.718 552.933L267.947 567.438L274.424 579.173L296.409 558.375C298.519 557.441 300.214 555.765 301.172 553.666C302.13 551.566 302.284 549.187 301.605 546.981C300.927 544.775 299.462 542.895 297.49 541.696C295.518 540.498 293.174 540.064 290.904 540.478Z" fill="#FFB8B8"/>
<path d="M243.448 606.43C242.735 606.43 242.022 606.399 241.307 606.338C237.053 605.983 232.958 604.553 229.408 602.182C225.858 599.811 222.968 596.576 221.01 592.782L195.743 544.15C194.087 540.963 193.723 537.261 194.728 533.813C195.732 530.365 198.027 527.437 201.135 525.639C204.244 523.84 207.926 523.309 211.415 524.155C214.905 525.002 217.934 527.162 219.872 530.185L243.183 582.489L274.902 556.717L293.268 563.866L262.252 598.108C259.868 600.725 256.964 602.817 253.727 604.25C250.489 605.683 246.988 606.425 243.448 606.43Z" fill="#CCCCCC"/>
<path d="M336.914 531.285L308.812 503.183C307.829 502.2 306.496 501.648 305.105 501.648C303.715 501.648 302.382 502.2 301.399 503.183L276.119 528.463C275.136 529.446 274.583 530.78 274.583 532.17C274.583 533.56 275.136 534.893 276.119 535.876L302.375 562.133C303.312 563.069 304.568 563.617 305.891 563.665C307.214 563.713 308.507 563.259 309.509 562.393L336.634 538.958C337.155 538.508 337.582 537.96 337.891 537.345C338.2 536.73 338.385 536.06 338.435 535.373C338.485 534.687 338.399 533.997 338.183 533.344C337.967 532.69 337.624 532.086 337.174 531.565C337.09 531.469 337.004 531.375 336.914 531.285Z" fill="#3F3D56"/>
<path d="M332.935 536.213L304.009 507.288L280.138 531.159L307.941 558.961L332.935 536.213Z" fill="#F2F2F2"/>
<path d="M306.06 544.632C312.547 544.632 317.806 539.373 317.806 532.886C317.806 526.399 312.547 521.14 306.06 521.14C299.573 521.14 294.314 526.399 294.314 532.886C294.314 539.373 299.573 544.632 306.06 544.632Z" fill="#004A93"/>
<path opacity="0.1" d="M311.288 542.897C313.253 541.051 314.523 538.585 314.884 535.913C315.246 533.241 314.678 530.526 313.274 528.224C311.871 525.922 309.719 524.172 307.178 523.269C304.638 522.366 301.864 522.365 299.322 523.265C300.695 522.304 302.258 521.647 303.906 521.34C305.554 521.032 307.248 521.081 308.876 521.483C310.503 521.885 312.025 522.63 313.341 523.67C314.656 524.709 315.734 526.017 316.501 527.507C317.269 528.997 317.709 530.635 317.791 532.309C317.874 533.983 317.597 535.655 316.979 537.214C316.362 538.772 315.418 540.18 314.211 541.343C313.004 542.507 311.562 543.398 309.982 543.958C310.442 543.636 310.878 543.281 311.288 542.897Z" fill="black"/>
<path d="M300.285 530.552C298.884 531.868 298.81 536.606 300.949 538.882C303.088 541.158 306.629 540.111 308.03 538.795C309.431 537.479 308.16 536.392 306.021 534.116C303.883 531.839 301.686 529.235 300.285 530.552Z" fill="#F2F2F2"/>
<path d="M312.209 536.557C314.131 536.557 315.689 534.999 315.689 533.077C315.689 531.155 314.131 529.597 312.209 529.597C310.287 529.597 308.729 531.155 308.729 533.077C308.729 534.999 310.287 536.557 312.209 536.557Z" fill="#2F2E41"/>
<path d="M305.953 529.9C307.875 529.9 309.434 528.341 309.434 526.419C309.434 524.497 307.875 522.939 305.953 522.939C304.031 522.939 302.473 524.497 302.473 526.419C302.473 528.341 304.031 529.9 305.953 529.9Z" fill="#2F2E41"/>
<path d="M312.209 533.947C312.69 533.947 313.079 533.558 313.079 533.077C313.079 532.597 312.69 532.207 312.209 532.207C311.729 532.207 311.339 532.597 311.339 533.077C311.339 533.558 311.729 533.947 312.209 533.947Z" fill="#F2F2F2"/>
<path d="M312.584 531.37C312.824 531.37 313.019 531.175 313.019 530.935C313.019 530.694 312.824 530.499 312.584 530.499C312.343 530.499 312.149 530.694 312.149 530.935C312.149 531.175 312.343 531.37 312.584 531.37Z" fill="#F2F2F2"/>
<path d="M306.328 524.712C306.568 524.712 306.763 524.517 306.763 524.277C306.763 524.036 306.568 523.842 306.328 523.842C306.088 523.842 305.893 524.036 305.893 524.277C305.893 524.517 306.088 524.712 306.328 524.712Z" fill="#F2F2F2"/>
<path d="M305.953 527.289C306.434 527.289 306.823 526.9 306.823 526.419C306.823 525.939 306.434 525.549 305.953 525.549C305.473 525.549 305.083 525.939 305.083 526.419C305.083 526.9 305.473 527.289 305.953 527.289Z" fill="#F2F2F2"/>
<path d="M431.99 654.69L437.297 643.639L397.196 617.909L389.363 634.22L431.99 654.69Z" fill="#FFB8B8"/>
<path d="M458.012 626.798C456.191 625.922 454.215 625.414 452.197 625.303C450.179 625.191 448.16 625.478 446.253 626.148C444.346 626.818 442.59 627.856 441.085 629.205C439.58 630.554 438.356 632.186 437.482 634.008L433.902 641.458L428.382 652.958L427.032 655.778L441.352 662.658L458.462 627.018L458.012 626.798Z" fill="#2F2E41"/>
<path d="M429.962 632.478L427.642 637.438L421.852 649.818L421.712 650.128C409.342 650.758 396.152 646.638 384.102 640.888C379.281 638.588 374.581 636.042 370.022 633.258C363.272 629.168 357.272 624.938 352.502 621.348C345.322 615.918 340.932 611.918 340.932 611.918C340.932 611.918 339.612 612.938 337.232 614.678C334.042 617.008 328.952 620.638 322.532 624.878C320.082 626.508 317.456 628.208 314.652 629.978C293.992 642.968 264.612 658.788 239.622 662.128C195.732 667.998 206.062 609.428 206.062 609.428L240.992 591.288L255.822 594.298L272.332 597.638L278.182 598.828C278.182 598.828 279.292 598.408 281.202 597.678C287.352 595.328 301.802 589.778 314.282 584.818C320.712 582.258 326.612 579.848 330.582 578.118C344.642 571.968 360.382 586.868 360.382 586.868L429.962 632.478Z" fill="#2F2E41"/>
<path d="M142.145 663.526C143.481 663.22 144.734 662.624 145.815 661.781C146.896 660.938 147.778 659.868 148.401 658.647C149.024 657.425 149.371 656.082 149.419 654.712C149.467 653.342 149.213 651.979 148.677 650.717L163.677 635.415L156.602 624.032L135.722 645.938C133.662 646.98 132.056 648.741 131.208 650.888C130.36 653.034 130.329 655.417 131.121 657.585C131.913 659.753 133.472 661.555 135.504 662.65C137.536 663.745 139.899 664.057 142.145 663.526L142.145 663.526Z" fill="#FFB8B8"/>
<path d="M214.958 510.193C227.874 510.193 238.344 499.722 238.344 486.807C238.344 473.891 227.874 463.42 214.958 463.42C202.042 463.42 191.572 473.891 191.572 486.807C191.572 499.722 202.042 510.193 214.958 510.193Z" fill="#FFB8B8"/>
<path d="M184.533 551.724L204.905 609.48L204.783 609.682C201.949 614.366 201.023 618.144 202.105 620.608C202.39 621.235 202.808 621.792 203.329 622.241C203.85 622.691 204.462 623.022 205.124 623.212L253.332 589.515L251.644 576.01L251.738 575.859C256.398 568.404 257.907 561.652 256.223 555.792C254.039 548.188 247.098 544.736 247.028 544.701L246.86 544.569L222.815 515.304L190.673 521.014L184.533 551.724Z" fill="#CCCCCC"/>
<path d="M153.553 653.099L139.906 636.302L172.805 581.993L188.144 534.58L188.62 534.734L188.144 534.58C188.982 531.99 190.365 529.61 192.201 527.6C194.037 525.589 196.282 523.996 198.786 522.927C201.289 521.858 203.993 521.338 206.714 521.402C209.436 521.466 212.112 522.113 214.563 523.299C217.013 524.484 219.181 526.182 220.92 528.276C222.659 530.371 223.928 532.814 224.643 535.441C225.358 538.067 225.502 540.817 225.065 543.504C224.627 546.191 223.619 548.753 222.107 551.017L193.948 593.206L153.553 653.099Z" fill="#CCCCCC"/>
<path d="M248.171 482.077H212.706L212.342 476.985L210.524 482.077H205.063L204.342 471.985L200.738 482.077H190.171V481.577C190.179 474.551 192.974 467.815 197.942 462.847C202.91 457.879 209.645 455.084 216.671 455.077H221.671C228.697 455.084 235.433 457.879 240.401 462.847C245.369 467.815 248.163 474.551 248.171 481.577V482.077Z" fill="#2F2E41"/>
<path d="M212.416 513.743C212.149 513.743 211.882 513.719 211.619 513.673L185.65 509.091V466.171H214.237L213.529 466.996C203.682 478.481 211.101 497.103 216.399 507.181C216.79 507.919 216.964 508.752 216.902 509.585C216.839 510.418 216.543 511.216 216.047 511.888C215.632 512.462 215.086 512.93 214.455 513.253C213.823 513.575 213.124 513.743 212.416 513.743Z" fill="#2F2E41"/>
<path d="M588.139 438.689C651.1 438.689 702.139 387.65 702.139 324.689C702.139 261.729 651.1 210.689 588.139 210.689C525.179 210.689 474.139 261.729 474.139 324.689C474.139 387.65 525.179 438.689 588.139 438.689Z" fill="#3F3D56"/>
<path d="M558.992 280.378V377.369C558.967 377.819 559.064 378.266 559.273 378.665C559.481 379.063 559.794 379.398 560.177 379.634C560.56 379.87 561 379.998 561.45 380.004C561.899 380.011 562.343 379.896 562.732 379.671L639.616 331.175C639.992 330.924 640.3 330.585 640.514 330.186C640.727 329.787 640.838 329.342 640.838 328.89C640.838 328.438 640.727 327.992 640.514 327.594C640.3 327.195 639.992 326.855 639.616 326.604L562.732 278.108C562.346 277.877 561.904 277.756 561.454 277.757C561.004 277.758 560.563 277.883 560.178 278.116C559.793 278.35 559.48 278.684 559.271 279.082C559.062 279.481 558.965 279.929 558.992 280.378Z" fill="#F2F2F2"/>
</g>
<defs>
<clipPath id="clip0">
<rect width="766" height="663.78" fill="white"/>
</clipPath>
</defs>
</svg>
