<svg width="500" height="302" viewBox="0 0 500 302" fill="none" xmlns="http://www.w3.org/2000/svg">
<g clip-path="url(#clip0)">
<path d="M500 235.198C500.01 237.217 499.22 239.157 497.802 240.592C496.383 242.027 494.454 242.839 492.438 242.849H159.705C158.707 242.844 157.72 242.642 156.799 242.255C155.879 241.868 155.044 241.303 154.342 240.592C153.639 239.882 153.084 239.04 152.706 238.114C152.329 237.189 152.138 236.198 152.143 235.199V7.65092C152.132 5.63232 152.923 3.69222 154.341 2.25739C155.76 0.822568 157.689 0.0105563 159.705 0H492.437C493.436 0.00519909 494.423 0.207216 495.344 0.594514C496.264 0.981812 497.099 1.54681 497.801 2.25724C498.504 2.96767 499.059 3.80964 499.436 4.73505C499.814 5.66046 500.005 6.65121 500 7.65071V7.65092V235.198Z" fill="#E6E6E6"/>
<path d="M496.075 231.472C496.075 233.434 495.296 235.316 493.911 236.703C492.525 238.091 490.646 238.87 488.686 238.87H163.685C161.725 238.87 159.846 238.091 158.46 236.703C157.074 235.316 156.296 233.434 156.296 231.472V11.4814C156.296 9.51932 157.074 7.63765 158.46 6.25028C159.846 4.86291 161.725 4.0835 163.685 4.0835H488.701C490.658 4.08744 492.533 4.86859 493.916 6.25553C495.298 7.64247 496.075 9.5219 496.075 11.4814V231.472Z" fill="white"/>
<path d="M173.666 13.6347H479.052C480.215 13.6347 481.331 14.0973 482.153 14.9208C482.976 15.7443 483.438 16.8612 483.438 18.0258V224.074C483.438 225.239 482.976 226.356 482.153 227.179C481.331 228.003 480.215 228.465 479.052 228.465H173.666C172.503 228.465 171.387 228.003 170.565 227.179C169.742 226.356 169.28 225.239 169.28 224.074V18.0258C169.28 16.8612 169.742 15.7443 170.565 14.9208C171.387 14.0973 172.503 13.6347 173.666 13.6347Z" fill="#E6E6E6"/>
<path d="M177.531 18.5765H474.854C476.017 18.5765 477.133 19.0392 477.955 19.8627C478.778 20.6861 479.24 21.803 479.24 22.9676V218.021C479.24 219.186 478.778 220.303 477.955 221.126C477.133 221.95 476.017 222.412 474.854 222.412H177.531C176.368 222.412 175.253 221.95 174.43 221.126C173.608 220.303 173.146 219.186 173.146 218.021V22.9676C173.146 21.803 173.608 20.6861 174.43 19.8627C175.253 19.0392 176.368 18.5765 177.531 18.5765Z" fill="white"/>
<path d="M387.462 154.076C386.291 154.076 385.134 153.829 384.065 153.352C383.817 153.241 383.58 153.106 383.357 152.949L361.749 137.721C360.653 136.949 359.759 135.924 359.142 134.733C358.524 133.542 358.202 132.22 358.201 130.878V110.11C358.202 108.769 358.524 107.447 359.142 106.256C359.759 105.065 360.653 104.04 361.749 103.268L383.357 88.0397C383.58 87.8824 383.817 87.7474 384.065 87.6369C385.338 87.0704 386.732 86.8312 388.121 86.9412C389.51 87.0511 390.849 87.5068 392.017 88.2666C393.185 89.0265 394.145 90.0665 394.809 91.2922C395.474 92.5179 395.822 93.8904 395.822 95.285V145.704C395.822 147.924 394.941 150.053 393.373 151.622C391.805 153.192 389.679 154.074 387.462 154.074L387.462 154.076Z" fill="#3F3D56"/>
<path d="M339.103 158.159H278.836C266.541 158.149 256.577 150.192 256.564 140.373V100.616C256.577 90.7967 266.541 82.8394 278.836 82.8293H339.26C351.468 82.8409 361.36 90.7411 361.375 100.49V140.373C361.362 150.192 351.398 158.149 339.103 158.159Z" fill="#3F3D56"/>
<path d="M446.457 209.87C456.356 209.87 464.381 201.835 464.381 191.925C464.381 182.014 456.356 173.979 446.457 173.979C436.558 173.979 428.533 182.014 428.533 191.925C428.533 201.835 436.558 209.87 446.457 209.87Z" fill="#E6E6E6"/>
<path d="M455.767 191.603L441.48 183.344C441.423 183.312 441.359 183.295 441.294 183.295C441.229 183.295 441.165 183.312 441.109 183.344C441.052 183.377 441.005 183.424 440.973 183.48C440.94 183.537 440.923 183.601 440.923 183.666V200.183C440.923 200.248 440.94 200.312 440.973 200.369C441.005 200.425 441.052 200.472 441.109 200.505C441.165 200.537 441.229 200.554 441.294 200.554C441.359 200.554 441.423 200.537 441.48 200.505L455.767 192.246C455.823 192.214 455.87 192.167 455.903 192.11C455.935 192.054 455.952 191.99 455.952 191.925C455.952 191.859 455.935 191.795 455.903 191.739C455.87 191.682 455.823 191.635 455.767 191.603L441.48 183.344C441.423 183.312 441.359 183.295 441.294 183.295C441.229 183.295 441.165 183.312 441.109 183.344C441.052 183.377 441.005 183.424 440.973 183.48C440.94 183.537 440.923 183.601 440.923 183.666V200.183C440.923 200.248 440.94 200.312 440.973 200.369C441.005 200.425 441.052 200.472 441.109 200.505C441.165 200.537 441.229 200.554 441.294 200.554C441.359 200.554 441.423 200.537 441.48 200.505L455.767 192.246C455.823 192.214 455.87 192.167 455.903 192.11C455.935 192.054 455.952 191.99 455.952 191.925C455.952 191.859 455.935 191.795 455.903 191.739C455.87 191.682 455.823 191.635 455.767 191.603Z" fill="white"/>
<path d="M423.185 262.488C423.196 264.506 422.405 266.446 420.987 267.881C419.569 269.316 417.639 270.128 415.623 270.139H82.8908C81.8924 270.133 80.9049 269.931 79.9846 269.544C79.0643 269.157 78.2291 268.592 77.5269 267.881C76.8246 267.171 76.269 266.329 75.8918 265.404C75.5145 264.478 75.323 263.487 75.3282 262.488V34.9402C75.3177 32.9216 76.1085 30.9815 77.5267 29.5466C78.9449 28.1118 80.8744 27.2998 82.8906 27.2892H415.623C416.621 27.2944 417.609 27.4965 418.529 27.8838C419.449 28.2711 420.284 28.8361 420.987 29.5465C421.689 30.2569 422.244 31.0989 422.622 32.0243C422.999 32.9497 423.19 33.9405 423.185 34.94V34.9402V262.488Z" fill="#E6E6E6"/>
<path d="M419.26 258.761C419.26 260.723 418.482 262.605 417.096 263.993C415.71 265.38 413.831 266.159 411.871 266.159H86.8703C84.9106 266.159 83.0311 265.38 81.6454 263.993C80.2597 262.605 79.4812 260.723 79.4812 258.761V38.7705C79.4812 36.8085 80.2597 34.9268 81.6454 33.5395C83.0311 32.1521 84.9106 31.3727 86.8703 31.3727H411.886C413.843 31.3766 415.719 32.1578 417.101 33.5447C418.484 34.9317 419.26 36.8111 419.26 38.7705V258.761Z" fill="white"/>
<path d="M96.8512 40.924H402.237C403.4 40.924 404.516 41.3866 405.338 42.2101C406.161 43.0336 406.623 44.1504 406.623 45.315V251.364C406.623 252.528 406.161 253.645 405.338 254.469C404.516 255.292 403.4 255.755 402.237 255.755H96.8512C95.688 255.755 94.5724 255.292 93.7499 254.469C92.9274 253.645 92.4653 252.528 92.4653 251.364V45.315C92.4653 44.1504 92.9274 43.0336 93.7499 42.2101C94.5724 41.3866 95.688 40.924 96.8512 40.924Z" fill="#E6E6E6"/>
<path d="M100.717 45.8658H398.039C399.203 45.8658 400.318 46.3284 401.141 47.1519C401.963 47.9754 402.425 49.0923 402.425 50.2569V245.31C402.425 246.475 401.963 247.592 401.141 248.415C400.318 249.239 399.203 249.701 398.039 249.701H100.717C99.5535 249.701 98.4379 249.239 97.6154 248.415C96.7929 247.592 96.3308 246.475 96.3308 245.31V50.2569C96.3308 49.0923 96.7929 47.9754 97.6154 47.1519C98.4379 46.3284 99.5535 45.8658 100.717 45.8658Z" fill="white"/>
<path d="M310.647 181.366C309.477 181.365 308.319 181.118 307.251 180.641C307.002 180.531 306.765 180.396 306.542 180.238L284.934 165.01C283.838 164.238 282.944 163.213 282.327 162.022C281.709 160.831 281.387 159.509 281.386 158.168V137.4C281.387 136.058 281.709 134.736 282.327 133.545C282.944 132.354 283.838 131.329 284.934 130.557L306.542 115.329C306.765 115.172 307.002 115.037 307.25 114.926C308.523 114.36 309.917 114.12 311.306 114.23C312.695 114.34 314.034 114.796 315.202 115.556C316.37 116.316 317.33 117.356 317.994 118.581C318.659 119.807 319.007 121.18 319.007 122.574V172.993C319.007 175.213 318.126 177.342 316.558 178.912C314.99 180.481 312.864 181.363 310.647 181.363L310.647 181.366Z" fill="#3F3D56"/>
<path d="M262.288 185.449H202.021C189.726 185.439 179.762 177.481 179.749 167.662V127.905C179.762 118.086 189.726 110.129 202.021 110.119H262.445C274.653 110.13 284.546 118.03 284.56 127.779V167.662C284.547 177.481 274.583 185.439 262.288 185.449Z" fill="#3F3D56"/>
<path d="M369.642 237.159C379.541 237.159 387.566 229.125 387.566 219.214C387.566 209.303 379.541 201.269 369.642 201.269C359.743 201.269 351.719 209.303 351.719 219.214C351.719 229.125 359.743 237.159 369.642 237.159Z" fill="#E6E6E6"/>
<path d="M378.952 218.892L364.665 210.634C364.608 210.601 364.544 210.584 364.479 210.584C364.414 210.584 364.35 210.601 364.294 210.634C364.237 210.666 364.19 210.713 364.158 210.77C364.125 210.826 364.108 210.89 364.108 210.955V227.472C364.108 227.537 364.125 227.602 364.158 227.658C364.19 227.714 364.237 227.761 364.294 227.794C364.35 227.827 364.414 227.844 364.479 227.844C364.544 227.844 364.608 227.827 364.665 227.794L378.952 219.535C379.008 219.503 379.055 219.456 379.088 219.4C379.12 219.343 379.137 219.279 379.137 219.214C379.137 219.149 379.12 219.085 379.088 219.028C379.055 218.972 379.008 218.925 378.952 218.892L364.665 210.634C364.608 210.601 364.544 210.584 364.479 210.584C364.414 210.584 364.35 210.601 364.294 210.634C364.237 210.666 364.19 210.713 364.158 210.77C364.125 210.826 364.108 210.89 364.108 210.955V227.472C364.108 227.538 364.125 227.602 364.158 227.658C364.19 227.714 364.237 227.761 364.294 227.794C364.35 227.827 364.414 227.844 364.479 227.844C364.544 227.844 364.608 227.827 364.665 227.794L378.952 219.535C379.008 219.503 379.055 219.456 379.088 219.4C379.12 219.343 379.137 219.279 379.137 219.214C379.137 219.149 379.12 219.085 379.088 219.028C379.055 218.972 379.008 218.925 378.952 218.892Z" fill="white"/>
<path d="M347.857 293.746C347.868 295.765 347.077 297.705 345.659 299.14C344.24 300.575 342.311 301.387 340.295 301.397H7.56264C6.56432 301.392 5.5768 301.19 4.65646 300.803C3.73612 300.415 2.90098 299.85 2.19873 299.14C1.49649 298.43 0.94088 297.588 0.563639 296.662C0.186397 295.737 -0.00509114 294.746 0.000104069 293.747V66.1988C-0.0104384 64.1802 0.780379 62.2401 2.19859 60.8052C3.6168 59.3704 5.54623 58.5584 7.56243 58.5479H340.294C341.293 58.5531 342.28 58.7551 343.201 59.1424C344.121 59.5297 344.956 60.0947 345.658 60.8051C346.361 61.5155 346.916 62.3575 347.294 63.2829C347.671 64.2083 347.862 65.1991 347.857 66.1986V66.1988V293.746Z" fill="#E6E6E6"/>
<path d="M343.932 290.02C343.932 291.982 343.154 293.864 341.768 295.251C340.382 296.639 338.503 297.418 336.543 297.418H11.5422C9.58246 297.418 7.70301 296.639 6.31729 295.251C4.93157 293.864 4.15308 291.982 4.15308 290.02V70.0292C4.15308 68.0671 4.93157 66.1854 6.31729 64.7981C7.70301 63.4107 9.58246 62.6313 11.5422 62.6313H336.558C338.515 62.6352 340.391 63.4164 341.773 64.8033C343.156 66.1903 343.932 68.0697 343.932 70.0292V290.02Z" fill="white"/>
<path d="M21.5231 72.1825H326.909C328.072 72.1825 329.188 72.6451 330.01 73.4686C330.833 74.2921 331.295 75.409 331.295 76.5736V282.622C331.295 283.787 330.833 284.904 330.01 285.727C329.188 286.551 328.072 287.013 326.909 287.013H21.5231C20.3599 287.013 19.2443 286.551 18.4218 285.727C17.5993 284.904 17.1372 283.787 17.1372 282.622V76.5736C17.1372 75.409 17.5993 74.2921 18.4218 73.4686C19.2443 72.6451 20.3599 72.1825 21.5231 72.1825Z" fill="#E6E6E6"/>
<path d="M25.3886 77.1243H322.711C323.287 77.1243 323.858 77.2379 324.39 77.4586C324.922 77.6793 325.405 78.0027 325.813 78.4104C326.22 78.8182 326.543 79.3023 326.763 79.835C326.984 80.3678 327.097 80.9388 327.097 81.5154V276.569C327.097 277.146 326.984 277.717 326.763 278.249C326.543 278.782 326.22 279.266 325.813 279.674C325.405 280.082 324.922 280.405 324.39 280.626C323.858 280.846 323.287 280.96 322.711 280.96H25.3886C24.2254 280.96 23.1098 280.497 22.2873 279.674C21.4648 278.85 21.0027 277.734 21.0027 276.569V81.5154C21.0027 80.3508 21.4648 79.2339 22.2873 78.4104C23.1098 77.587 24.2254 77.1243 25.3886 77.1243Z" fill="white"/>
<path d="M235.319 212.624C234.149 212.623 232.992 212.377 231.923 211.9C231.674 211.789 231.437 211.654 231.215 211.497L209.606 196.269C208.511 195.496 207.616 194.472 206.999 193.281C206.381 192.09 206.059 190.768 206.059 189.426V168.658C206.059 167.316 206.381 165.994 206.999 164.804C207.616 163.613 208.511 162.588 209.606 161.816L231.215 146.588C231.437 146.43 231.674 146.295 231.923 146.185C233.195 145.618 234.589 145.379 235.978 145.489C237.367 145.599 238.706 146.055 239.874 146.814C241.042 147.574 242.002 148.614 242.666 149.84C243.331 151.066 243.679 152.438 243.679 153.833V204.252C243.679 206.471 242.798 208.6 241.23 210.17C239.662 211.74 237.536 212.622 235.319 212.622L235.319 212.624Z" fill="#004A93"/>
<path d="M186.96 216.707H126.693C114.398 216.697 104.434 208.74 104.421 198.921V159.163C104.434 149.345 114.398 141.387 126.693 141.377H187.117C199.325 141.389 209.218 149.289 209.232 159.038V198.921C209.219 208.74 199.255 216.697 186.96 216.707Z" fill="#004A93"/>
<path d="M294.314 268.417C304.213 268.417 312.238 260.383 312.238 250.472C312.238 240.562 304.213 232.527 294.314 232.527C284.415 232.527 276.391 240.562 276.391 250.472C276.391 260.383 284.415 268.417 294.314 268.417Z" fill="#3F3D56"/>
<path d="M303.624 250.151L289.337 241.892C289.28 241.86 289.216 241.842 289.151 241.842C289.086 241.842 289.022 241.86 288.966 241.892C288.909 241.925 288.863 241.972 288.83 242.028C288.797 242.085 288.78 242.149 288.78 242.214V258.731C288.78 258.796 288.797 258.86 288.83 258.917C288.863 258.973 288.909 259.02 288.966 259.053C289.022 259.085 289.086 259.102 289.151 259.102C289.216 259.102 289.28 259.085 289.337 259.053L303.624 250.794C303.68 250.761 303.727 250.715 303.76 250.658C303.792 250.602 303.809 250.538 303.809 250.472C303.809 250.407 303.792 250.343 303.76 250.287C303.727 250.23 303.68 250.183 303.624 250.151L289.337 241.892C289.28 241.86 289.216 241.842 289.151 241.842C289.086 241.842 289.022 241.86 288.966 241.892C288.909 241.925 288.863 241.972 288.83 242.028C288.797 242.085 288.78 242.149 288.78 242.214V258.731C288.78 258.796 288.797 258.86 288.83 258.917C288.863 258.973 288.909 259.02 288.966 259.053C289.022 259.085 289.086 259.102 289.151 259.102C289.216 259.102 289.28 259.085 289.337 259.053L303.624 250.794C303.68 250.761 303.727 250.715 303.76 250.658C303.792 250.602 303.809 250.538 303.809 250.472C303.809 250.407 303.792 250.343 303.76 250.287C303.727 250.23 303.68 250.183 303.624 250.151Z" fill="white"/>
</g>
<defs>
<clipPath id="clip0">
<rect width="500" height="301.397" fill="white"/>
</clipPath>
</defs>
</svg>
